<?xml version="1.0" standalone="no"?>
<!DOCTYPE svg PUBLIC "-//W3C//DTD SVG 20010904//EN"
 "http://www.w3.org/TR/2001/REC-SVG-20010904/DTD/svg10.dtd">
<svg version="1.0" xmlns="http://www.w3.org/2000/svg"
 width="1068.000000pt" height="1068.000000pt" viewBox="0 0 1068.000000 1068.000000"
 preserveAspectRatio="xMidYMid meet">
<metadata>
Created by potrace 1.14, written by Peter Selinger 2001-2017
</metadata>
<g transform="translate(0.000000,1068.000000) scale(0.100000,-0.100000)"
fill="#000000" stroke="none">
<path d="M4990 9060 c-330 -21 -667 -73 -940 -146 -397 -104 -803 -268 -1105
-444 -192 -111 -408 -254 -535 -353 -155 -121 -413 -360 -530 -493 -123 -138
-150 -173 -307 -389 -46 -63 -133 -200 -133 -209 0 -2 -25 -48 -56 -102 -248
-437 -388 -880 -455 -1439 -18 -150 -16 -572 4 -735 50 -406 141 -759 277
-1075 247 -574 620 -1079 1105 -1498 17 -14 41 -35 55 -47 14 -12 55 -45 93
-73 61 -47 81 -77 58 -91 -15 -9 -34 -123 -27 -161 6 -32 3 -40 -26 -69 -104
-106 -155 -164 -244 -282 -264 -351 -505 -858 -620 -1303 -19 -73 -34 -137
-34 -142 0 -5 32 -9 70 -9 62 0 70 2 70 19 0 47 91 358 145 498 58 147 198
435 260 533 16 25 34 54 40 65 13 25 126 195 142 215 6 8 33 44 60 80 26 36
70 90 98 120 29 30 70 75 92 100 33 36 43 42 55 32 35 -28 312 -105 551 -152
21 -4 41 -10 44 -14 4 -4 -22 -37 -58 -74 -279 -288 -515 -787 -620 -1312 -10
-52 -19 -98 -19 -102 0 -5 33 -8 74 -8 l74 0 12 67 c90 495 341 1020 621 1303
93 94 103 100 132 95 18 -3 100 -17 182 -31 179 -31 399 -60 550 -74 190 -17
515 -40 571 -40 30 0 54 -3 54 -6 0 -3 -11 -20 -24 -37 -37 -50 -82 -155 -101
-236 -26 -106 -17 -259 20 -361 138 -378 569 -545 948 -368 37 17 67 35 67 40
0 4 7 8 15 8 8 0 52 37 97 83 145 144 205 295 195 495 -6 139 -37 233 -109
335 -11 16 -18 30 -16 32 2 2 168 15 368 29 347 24 431 32 804 77 l159 19 41
-47 c161 -183 304 -449 412 -770 40 -118 101 -373 120 -497 l17 -116 80 0 79
0 -6 38 c-3 20 -8 60 -12 87 -14 117 -48 275 -89 415 -7 25 -20 69 -28 99 -70
242 -243 570 -399 752 -26 31 -48 59 -48 62 0 2 23 7 50 11 60 8 461 107 578
142 l84 26 46 -49 c99 -102 178 -200 237 -295 17 -27 33 -48 38 -48 4 0 7 -4
7 -9 0 -6 13 -30 29 -53 103 -153 246 -453 346 -728 34 -94 105 -347 111 -397
l7 -53 94 0 95 0 -6 38 c-23 129 -115 430 -169 553 -13 30 -32 74 -42 99 -26
62 -161 326 -219 430 -111 196 -261 395 -390 517 l-75 72 11 38 c10 37 6 143
-7 174 -7 18 0 26 66 79 123 99 257 220 370 336 160 163 213 224 362 414 32
40 191 287 243 375 193 332 327 666 408 1017 73 317 96 520 96 843 0 315 -34
612 -99 865 -35 139 -107 375 -130 425 -5 11 -28 70 -51 130 -24 61 -65 155
-92 210 -78 158 -244 443 -306 526 -32 42 -84 112 -117 157 -138 184 -413 478
-610 652 -70 62 -230 184 -360 276 -118 84 -319 204 -545 327 -71 38 -345 157
-480 208 -58 22 -132 51 -165 64 -68 26 -475 128 -579 145 -38 6 -72 13 -76
15 -13 8 -276 44 -430 59 -199 19 -527 27 -700 16z m605 -125 c252 -21 380
-39 645 -94 200 -42 542 -150 785 -248 123 -50 415 -194 545 -268 159 -91 484
-318 575 -402 11 -10 63 -54 115 -98 93 -79 273 -254 380 -370 86 -93 264
-328 327 -430 7 -11 39 -63 72 -115 33 -52 76 -124 96 -160 37 -67 145 -285
145 -294 0 -2 13 -33 30 -69 119 -258 220 -639 272 -1027 18 -142 16 -602 -5
-775 -35 -300 -130 -679 -226 -900 -5 -11 -22 -51 -37 -89 -58 -138 -169 -354
-248 -481 -78 -126 -254 -369 -312 -430 -16 -17 -46 -51 -66 -76 -63 -79 -378
-389 -378 -374 0 4 37 51 83 104 46 53 109 130 140 171 32 41 61 80 67 87 86
105 251 373 352 573 196 390 284 657 345 1044 22 140 26 638 5 725 -14 60 -8
71 35 71 21 0 53 33 53 56 0 28 -38 54 -78 54 -37 0 -42 3 -48 28 -17 76 -29
118 -70 241 -78 231 -159 396 -300 603 -52 76 -94 142 -94 147 0 5 89 39 198
75 108 37 207 74 220 82 48 31 44 98 -7 111 -32 8 -71 -2 -317 -84 l-202 -66
-69 69 c-72 72 -175 168 -209 194 -10 8 -39 31 -64 50 -25 19 -47 38 -50 41
-21 25 -423 278 -475 298 -5 2 -37 16 -70 31 -155 70 -469 182 -620 221 -44
11 -85 25 -91 30 -6 5 -14 60 -17 121 -8 146 -48 349 -87 443 -49 117 -165
320 -213 370 -217 230 -355 304 -594 321 -172 13 -313 -29 -488 -142 -152 -98
-276 -259 -358 -464 -26 -63 -50 -115 -54 -115 -4 0 -9 9 -12 20 -8 45 -87
206 -138 285 -139 211 -339 341 -573 371 -244 31 -505 -78 -709 -296 -65 -70
-201 -266 -201 -290 0 -7 -3 -15 -7 -17 -11 -4 -66 -134 -98 -230 -28 -85 -55
-211 -55 -264 0 -33 -1 -34 -72 -55 -265 -77 -565 -219 -808 -382 -41 -28 -77
-53 -80 -57 -3 -3 -21 -17 -40 -30 -19 -13 -37 -27 -40 -30 -3 -3 -39 -34 -80
-69 -109 -93 -264 -253 -344 -354 -38 -48 -74 -87 -79 -87 -5 0 -130 41 -278
90 -264 88 -323 102 -347 78 -27 -27 -20 5 24 103 56 129 145 306 190 380 19
31 34 62 34 68 0 6 5 11 10 11 6 0 10 4 10 9 0 12 141 225 152 229 4 2 8 10 8
18 0 8 4 14 8 14 4 0 16 13 25 30 10 16 23 35 30 42 7 8 28 34 46 58 79 102
230 268 340 374 111 107 111 107 181 166 35 30 70 60 78 67 30 28 220 171 250
188 17 11 32 23 32 27 0 4 5 8 10 8 6 0 16 5 23 10 62 53 307 191 562 318 357
177 891 330 1350 387 311 38 652 45 960 20z m685 -651 c31 -11 56 -26 58 -34
4 -22 -45 -93 -110 -158 -50 -51 -216 -181 -262 -206 -11 -6 -32 -19 -46 -28
-83 -53 -271 -140 -410 -188 -48 -17 -154 -39 -159 -34 -8 8 30 118 62 179 64
121 132 213 216 289 19 17 43 40 55 52 56 56 146 104 256 135 84 24 258 20
340 -7z m-1690 -26 c127 -30 304 -162 393 -292 70 -104 153 -303 134 -322 -10
-10 -160 24 -249 57 -194 71 -324 156 -463 301 -70 74 -165 210 -165 237 0 9
57 23 135 35 41 6 160 -3 215 -16z m1910 -84 c179 -119 322 -351 387 -629 23
-94 26 -133 26 -270 0 -165 -12 -253 -55 -395 -99 -328 -286 -555 -536 -648
-90 -33 -266 -42 -362 -18 -321 82 -561 391 -646 831 -21 107 -23 316 -5 423
12 68 14 72 39 72 128 0 492 148 687 278 186 125 357 290 388 375 9 24 15 22
77 -19z m-2340 11 c0 -9 18 -46 41 -83 164 -271 504 -491 857 -556 46 -9 87
-18 91 -21 15 -9 20 -152 10 -275 -11 -134 -37 -274 -69 -378 -24 -76 -117
-264 -170 -342 -108 -158 -287 -292 -468 -349 -65 -20 -89 -22 -195 -19 -143
5 -214 26 -316 92 -341 220 -484 718 -355 1230 68 270 241 525 449 662 81 54
125 67 125 39z m-725 -1176 c6 -102 42 -285 64 -334 5 -11 16 -36 24 -55 63
-152 122 -244 217 -340 104 -105 216 -170 360 -209 84 -24 225 -28 312 -10 66
13 182 55 226 81 18 11 35 18 38 16 2 -3 -2 -34 -11 -69 -17 -74 -19 -183 -5
-259 26 -136 137 -285 267 -357 53 -30 152 -65 198 -71 l50 -7 8 -753 c5 -415
7 -756 4 -758 -2 -2 -28 6 -58 20 -215 94 -455 66 -644 -77 -160 -121 -252
-300 -262 -514 -10 -191 33 -327 151 -481 82 -106 242 -207 366 -232 30 -6 60
-13 67 -15 8 -3 2 -27 -17 -77 -48 -121 -40 -259 25 -391 81 -167 239 -267
423 -267 123 0 227 44 314 131 91 92 158 281 113 319 -24 20 -64 4 -71 -28
-54 -256 -295 -387 -512 -280 -187 93 -265 346 -164 533 24 43 33 51 77 65 96
29 121 59 90 107 -16 23 -21 25 -64 19 -115 -17 -158 -18 -225 -6 -224 40
-410 224 -462 456 -67 303 117 598 417 669 142 33 284 8 425 -76 85 -51 99
-54 125 -28 l22 22 -7 751 c-4 413 -9 783 -12 821 l-6 70 66 19 c151 43 270
130 348 256 49 79 67 132 80 237 10 80 10 102 -5 164 -10 40 -16 74 -13 76 2
2 24 -4 48 -15 94 -41 199 -62 318 -62 244 0 523 174 691 430 72 110 146 297
168 425 24 138 19 127 54 120 116 -23 284 -79 456 -152 118 -50 422 -201 485
-240 22 -15 66 -42 96 -61 119 -76 286 -210 405 -326 l60 -58 -380 -127 c-209
-70 -420 -141 -470 -158 -49 -17 -178 -59 -285 -93 -107 -34 -205 -66 -218
-71 -53 -21 -53 -104 1 -123 22 -8 65 3 254 67 367 124 385 130 673 226 151
50 328 109 394 131 138 48 122 53 217 -71 100 -131 235 -369 288 -509 12 -30
26 -64 31 -75 15 -33 70 -236 70 -259 l0 -21 -885 3 -886 2 -24 -24 c-31 -31
-32 -60 -2 -90 l23 -23 906 5 906 5 6 -59 c3 -32 9 -150 12 -262 8 -265 -7
-407 -73 -687 -28 -121 -77 -289 -88 -303 -1 -1 -22 4 -46 12 -48 15 -247 76
-434 132 -134 40 -143 43 -410 113 -104 27 -219 59 -255 70 -74 23 -230 68
-405 117 -173 48 -214 43 -215 -27 0 -34 26 -56 86 -73 386 -104 568 -156 814
-231 96 -30 229 -68 295 -85 66 -17 156 -41 200 -54 44 -13 132 -36 195 -52
63 -15 118 -30 123 -34 19 -17 -91 -268 -211 -480 -59 -105 -255 -408 -271
-420 -4 -3 -18 -21 -31 -40 -13 -19 -27 -37 -30 -40 -3 -3 -17 -21 -30 -40
-14 -19 -34 -46 -46 -60 -12 -14 -55 -65 -97 -115 -41 -49 -100 -117 -132
-150 -98 -103 -228 -235 -230 -235 -2 0 -47 -9 -101 -19 -55 -11 -128 -24
-164 -30 -36 -5 -119 -19 -185 -31 -279 -47 -637 -85 -1140 -122 -269 -19
-391 -22 -930 -22 -589 -1 -766 4 -1160 35 -430 33 -938 123 -1325 235 -30 9
-70 19 -88 24 -18 4 -49 23 -70 41 -21 19 -65 56 -98 84 -58 49 -231 221 -309
307 -203 225 -415 544 -557 838 -42 87 -102 234 -110 269 -3 17 18 24 257 86
94 24 195 51 225 61 30 9 91 27 135 39 44 13 118 35 165 50 96 30 96 30 280
79 74 20 164 45 200 56 36 11 114 33 175 50 121 35 145 49 145 92 0 42 -34 71
-73 63 -44 -10 -329 -90 -402 -114 -55 -18 -281 -80 -480 -132 -69 -18 -446
-128 -602 -176 -82 -24 -72 -39 -128 207 -13 58 -34 182 -46 275 -18 146 -21
203 -16 410 3 138 10 265 18 299 l12 59 808 -6 c803 -6 807 -6 833 14 31 24
33 58 7 90 l-19 24 -797 2 c-438 2 -800 5 -804 8 -15 9 97 396 122 421 4 4 7
13 7 20 0 39 244 494 265 494 2 0 293 -97 647 -216 354 -119 658 -218 676
-221 23 -4 39 0 52 12 25 23 26 77 3 97 -10 8 -299 108 -643 222 -343 114
-630 211 -638 215 -11 6 1 26 54 87 82 96 221 235 289 289 28 22 52 42 55 45
27 30 224 165 355 243 84 50 275 143 365 176 73 27 242 85 261 90 4 0 10 -49
14 -110z m1805 -192 c6 -23 15 -51 20 -62 37 -81 60 -136 60 -141 0 -3 14 -25
31 -50 33 -49 32 -68 -5 -54 -27 10 -235 -3 -283 -18 -17 -6 -34 -8 -37 -5 -2
3 11 26 29 52 39 54 114 202 141 278 10 28 22 49 26 47 4 -3 12 -24 18 -47z
m75 -446 c28 -6 64 -17 80 -25 17 -8 42 -20 57 -27 31 -14 148 -123 148 -138
0 -4 9 -29 20 -54 69 -155 34 -325 -91 -449 -56 -55 -123 -98 -153 -98 -8 0
-16 -6 -19 -12 -3 -10 -38 -13 -133 -12 -127 1 -130 1 -199 36 -38 20 -87 53
-108 73 -44 43 -97 124 -97 149 0 9 -4 16 -9 16 -16 0 -34 111 -27 169 9 77
51 170 103 229 27 30 34 34 42 22 6 -8 13 -11 18 -7 4 5 1 12 -7 17 -12 8 -11
12 6 28 12 11 36 28 55 37 19 10 36 21 39 25 3 4 32 14 65 23 62 17 123 16
210 -2z m-4027 -63 c35 -21 202 -81 367 -133 66 -21 130 -42 141 -48 l22 -9
-21 -37 c-12 -20 -24 -38 -27 -41 -26 -23 -169 -306 -216 -427 -45 -117 -102
-300 -120 -387 l-18 -84 -125 -4 c-146 -5 -171 -14 -171 -61 0 -49 26 -60 158
-65 l114 -5 -6 -28 c-17 -87 -28 -325 -23 -504 8 -247 35 -432 106 -700 16
-61 14 -70 -23 -88 -45 -21 -58 -46 -42 -78 10 -21 19 -24 66 -24 l55 0 41
-105 c22 -58 46 -118 52 -133 7 -16 12 -30 12 -33 0 -7 132 -271 158 -316 32
-56 127 -205 154 -243 34 -47 189 -239 222 -275 82 -89 95 -108 46 -65 -25 21
-56 50 -70 65 -275 288 -493 574 -643 845 -90 164 -247 505 -247 538 0 9 -3
17 -8 19 -10 4 -84 236 -122 378 -34 132 -74 354 -92 515 -15 139 -15 532 1
690 30 302 98 601 198 875 l17 45 8 -30 c4 -18 20 -38 36 -47z m1456 -4357
c17 -10 69 -31 116 -46 47 -16 94 -32 105 -36 47 -19 214 -61 263 -66 28 -3
52 -9 52 -13 0 -4 24 -10 53 -13 28 -4 88 -14 132 -22 134 -26 474 -63 860
-95 578 -48 1793 -32 2355 30 47 5 117 12 155 14 39 3 106 10 150 16 99 12
504 62 527 65 10 1 21 4 24 8 4 4 21 7 38 7 29 0 136 19 331 57 44 8 95 18
114 20 l33 5 -7 -53 c-4 -30 -10 -57 -14 -60 -3 -4 -24 -12 -46 -18 -22 -7
-49 -16 -60 -21 -26 -11 -128 -36 -235 -57 -47 -10 -87 -20 -90 -24 -3 -4 -34
-10 -70 -13 -36 -4 -96 -13 -135 -21 -282 -58 -378 -74 -670 -109 -234 -29
-536 -52 -792 -61 -175 -7 -183 -6 -204 14 -13 12 -29 21 -36 21 -7 0 -13 4
-13 9 0 14 -120 59 -202 76 -99 19 -215 19 -314 -1 -75 -15 -199 -66 -254
-104 -23 -16 -41 -17 -195 -9 -195 10 -502 34 -620 49 -44 6 -177 21 -295 35
-118 14 -237 29 -265 34 -27 6 -111 22 -185 36 -74 14 -157 32 -185 40 -27 7
-79 21 -115 30 -36 9 -101 27 -145 40 -44 13 -122 37 -172 52 l-93 28 0 53 c0
28 5 52 10 52 6 0 10 5 10 10 0 16 31 60 42 60 6 0 25 -8 42 -19z m2696 -505
c30 -8 69 -22 85 -30 17 -9 35 -16 41 -16 20 0 158 -95 197 -136 53 -55 48
-66 -15 -42 -160 61 -470 96 -684 79 -75 -7 -138 -10 -141 -8 -2 3 24 25 59
49 140 100 318 140 458 104z m55 -251 c110 -20 239 -58 316 -93 54 -26 58 -29
64 -70 4 -24 4 -46 2 -49 -3 -2 -36 11 -73 30 -141 71 -269 107 -444 128 -172
19 -397 -2 -521 -51 -28 -11 -51 -15 -54 -10 -3 5 3 27 15 49 21 42 25 44 140
70 78 18 101 19 285 16 106 -2 217 -10 270 -20z m14 -165 c130 -33 297 -105
339 -147 7 -7 18 -13 23 -13 16 0 10 -36 -19 -117 -53 -149 -147 -257 -287
-327 -73 -37 -211 -71 -227 -57 -4 4 -9 60 -10 126 l-3 119 44 9 c63 13 127
79 137 142 9 64 -9 118 -54 163 -39 39 -116 72 -167 72 -116 0 -205 -84 -205
-192 0 -37 7 -55 33 -90 18 -24 49 -54 70 -67 l37 -24 0 -129 c0 -140 3 -136
-65 -117 -240 66 -405 273 -405 510 l0 66 73 26 c174 63 263 77 452 72 111 -3
172 -9 234 -25z m-164 -140 c75 -29 98 -109 44 -154 -69 -58 -203 -17 -215 66
-10 72 84 121 171 88z"/>
<path d="M5615 7501 c-50 -29 -95 -72 -95 -91 0 -6 -3 -10 -8 -10 -18 0 -69
-154 -77 -235 -23 -237 109 -452 275 -449 30 1 71 8 91 17 143 60 233 282 200
493 -19 126 -90 242 -172 284 -60 31 -151 27 -214 -9z m19 -252 c34 -16 56
-67 56 -131 0 -68 -16 -99 -64 -122 -36 -17 -40 -18 -72 -3 -65 32 -90 112
-59 192 24 66 80 91 139 64z"/>
<path d="M3909 7566 c-274 -74 -326 -606 -75 -773 42 -29 57 -33 113 -33 43 0
76 6 102 19 193 99 261 448 129 663 -39 64 -99 113 -153 127 -53 13 -57 13
-116 -3z m-30 -282 c48 -34 65 -130 37 -199 -27 -63 -104 -76 -156 -26 -61 57
-47 207 20 234 29 11 76 7 99 -9z"/>
<path d="M5218 6363 c6 -2 18 -2 25 0 6 3 1 5 -13 5 -14 0 -19 -2 -12 -5z"/>
<path d="M5006 6295 c-16 -12 -17 -15 -4 -15 8 0 21 7 28 15 16 19 1 19 -24 0z"/>
<path d="M5447 6289 c7 -7 15 -10 18 -7 3 3 -2 9 -12 12 -14 6 -15 5 -6 -5z"/>
<path d="M5240 6276 c0 -2 9 -6 20 -9 11 -3 20 -1 20 4 0 5 -9 9 -20 9 -11 0
-20 -2 -20 -4z"/>
<path d="M5405 6270 c-3 -5 1 -13 10 -16 22 -9 29 1 11 15 -10 8 -16 9 -21 1z"/>
<path d="M5228 6233 c7 -3 16 -2 19 1 4 3 -2 6 -13 5 -11 0 -14 -3 -6 -6z"/>
<path d="M4940 6215 c-10 -12 -10 -15 4 -15 9 0 16 7 16 15 0 8 -2 15 -4 15
-2 0 -9 -7 -16 -15z"/>
<path d="M5385 6220 c3 -5 10 -10 16 -10 5 0 9 5 9 10 0 6 -7 10 -16 10 -8 0
-12 -4 -9 -10z"/>
<path d="M5130 6189 c0 -5 5 -7 10 -4 6 3 10 8 10 11 0 2 -4 4 -10 4 -5 0 -10
-5 -10 -11z"/>
<path d="M5600 6083 c0 -13 5 -23 10 -23 13 0 13 11 0 30 -8 12 -10 11 -10 -7z"/>
<path d="M5121 6054 c0 -11 3 -14 6 -6 3 7 2 16 -1 19 -3 4 -6 -2 -5 -13z"/>
<path d="M5145 6050 c-3 -5 -1 -10 4 -10 6 0 11 5 11 10 0 6 -2 10 -4 10 -3 0
-8 -4 -11 -10z"/>
<path d="M5130 5975 c0 -8 5 -15 10 -15 6 0 10 7 10 15 0 8 -4 15 -10 15 -5 0
-10 -7 -10 -15z"/>
<path d="M5600 5850 c0 -16 2 -30 4 -30 2 0 6 14 8 30 3 17 1 30 -4 30 -4 0
-8 -13 -8 -30z"/>
<path d="M4850 5815 c0 -14 4 -25 9 -25 4 0 6 11 3 25 -2 14 -6 25 -8 25 -2 0
-4 -11 -4 -25z"/>
<path d="M4935 5710 c-8 -13 4 -32 16 -25 12 8 12 35 0 35 -6 0 -13 -4 -16
-10z"/>
<path d="M5465 5680 c-14 -16 -16 -23 -7 -32 9 -9 12 -7 12 10 0 14 9 26 23
32 14 6 16 9 6 9 -9 1 -24 -8 -34 -19z"/>
<path d="M5095 5630 c3 -5 10 -10 16 -10 5 0 9 5 9 10 0 6 -7 10 -16 10 -8 0
-12 -4 -9 -10z"/>
<path d="M5368 5633 c7 -3 16 -2 19 1 4 3 -2 6 -13 5 -11 0 -14 -3 -6 -6z"/>
<path d="M2720 1920 c0 -5 5 -10 11 -10 5 0 7 5 4 10 -3 6 -8 10 -11 10 -2 0
-4 -4 -4 -10z"/>
<path d="M2692 1899 c2 -7 10 -15 17 -17 8 -3 12 1 9 9 -2 7 -10 15 -17 17 -8
3 -12 -1 -9 -9z"/>
<path d="M2738 1883 c6 -2 18 -2 25 0 6 3 1 5 -13 5 -14 0 -19 -2 -12 -5z"/>
<path d="M2990 1820 c0 -5 7 -10 15 -10 8 0 15 5 15 10 0 6 -7 10 -15 10 -8 0
-15 -4 -15 -10z"/>
<path d="M7970 1816 c0 -2 9 -6 20 -9 11 -3 20 -1 20 4 0 5 -9 9 -20 9 -11 0
-20 -2 -20 -4z"/>
<path d="M3078 1803 c7 -3 16 -2 19 1 4 3 -2 6 -13 5 -11 0 -14 -3 -6 -6z"/>
<path d="M2848 1793 c6 -2 18 -2 25 0 6 3 1 5 -13 5 -14 0 -19 -2 -12 -5z"/>
<path d="M7955 1780 c-3 -5 1 -10 9 -10 9 0 16 5 16 10 0 6 -4 10 -9 10 -6 0
-13 -4 -16 -10z"/>
<path d="M2855 1760 c3 -5 10 -10 16 -10 5 0 9 5 9 10 0 6 -7 10 -16 10 -8 0
-12 -4 -9 -10z"/>
<path d="M3288 1753 c7 -3 16 -2 19 1 4 3 -2 6 -13 5 -11 0 -14 -3 -6 -6z"/>
<path d="M7430 1740 c8 -5 22 -9 30 -9 10 0 8 3 -5 9 -27 12 -43 12 -25 0z"/>
<path d="M2988 1713 c7 -3 16 -2 19 1 4 3 -2 6 -13 5 -11 0 -14 -3 -6 -6z"/>
<path d="M7648 1713 c6 -2 18 -2 25 0 6 3 1 5 -13 5 -14 0 -19 -2 -12 -5z"/>
<path d="M7743 1713 c9 -2 23 -2 30 0 6 3 -1 5 -18 5 -16 0 -22 -2 -12 -5z"/>
<path d="M3105 1690 c-19 -8 -19 -9 3 -9 12 -1 22 4 22 9 0 6 -1 10 -2 9 -2 0
-12 -4 -23 -9z"/>
<path d="M3830 1660 c8 -5 24 -10 34 -10 26 0 18 6 -19 14 -22 5 -26 4 -15 -4z"/>
<path d="M6800 1662 c0 -10 71 -25 79 -17 7 8 -2 12 -41 19 -21 4 -38 3 -38
-2z"/>
<path d="M3400 1620 c20 -13 40 -13 40 0 0 6 -12 10 -27 10 -22 0 -25 -2 -13
-10z"/>
<path d="M7128 1623 c7 -3 16 -2 19 1 4 3 -2 6 -13 5 -11 0 -14 -3 -6 -6z"/>
<path d="M3485 1610 c-7 -12 19 -12 55 0 22 7 21 8 -12 9 -20 1 -40 -3 -43 -9z"/>
<path d="M5058 1603 c12 -2 32 -2 45 0 12 2 2 4 -23 4 -25 0 -35 -2 -22 -4z"/>
<path d="M5258 1603 c7 -3 16 -2 19 1 4 3 -2 6 -13 5 -11 0 -14 -3 -6 -6z"/>
<path d="M5388 1603 c18 -2 45 -2 60 0 15 2 0 4 -33 4 -33 0 -45 -2 -27 -4z"/>
<path d="M4918 1563 c23 -2 61 -2 85 0 23 2 4 4 -43 4 -47 0 -66 -2 -42 -4z"/>
<path d="M5594 1559 c-4 -8 1 -9 15 -4 12 4 28 2 35 -4 10 -8 17 -7 26 4 11
13 7 15 -28 15 -23 0 -44 -5 -48 -11z"/>
<path d="M3818 1553 c7 -3 16 -2 19 1 4 3 -2 6 -13 5 -11 0 -14 -3 -6 -6z"/>
<path d="M4140 1550 c0 -5 12 -10 28 -9 24 0 25 1 7 9 -27 12 -35 12 -35 0z"/>
<path d="M6605 1540 c56 -22 65 -24 65 -11 0 5 -23 14 -50 20 -70 15 -73 13
-15 -9z"/>
<path d="M4960 1534 c0 -9 5 -14 12 -12 18 6 21 28 4 28 -9 0 -16 -7 -16 -16z"/>
<path d="M3988 1533 c12 -2 30 -2 40 0 9 3 -1 5 -23 4 -22 0 -30 -2 -17 -4z"/>
<path d="M6093 1473 c9 -2 23 -2 30 0 6 3 -1 5 -18 5 -16 0 -22 -2 -12 -5z"/>
<path d="M6168 1473 c7 -3 16 -2 19 1 4 3 -2 6 -13 5 -11 0 -14 -3 -6 -6z"/>
</g>
</svg>
